<mxfile host="www.draw.io" modified="2020-02-22T08:07:44.506Z" agent="Mozilla/5.0 (Macintosh; Intel Mac OS X 10_14_6) AppleWebKit/537.36 (KHTML, like Gecko) Chrome/79.0.3945.130 Safari/537.36" etag="paJ00qequVTL7qSx2J-a" version="12.7.4" type="github">
  <diagram id="cOudTeVoCgmoWJIrZq98" name="Page-1">
    <mxGraphModel dx="1732" dy="586" grid="1" gridSize="10" guides="1" tooltips="1" connect="1" arrows="1" fold="1" page="1" pageScale="1" pageWidth="827" pageHeight="1169" math="0" shadow="0">
      <root>
        <mxCell id="0" />
        <mxCell id="1" parent="0" />
        <mxCell id="ngFuJoTjV09uziLHRVnx-1" value="xiami-content-search-api" style="rounded=1;whiteSpace=wrap;html=1;gradientColor=#7ea6e0;fillColor=#dae8fc;strokeColor=#6c8ebf;fontSize=16;" vertex="1" parent="1">
          <mxGeometry x="-120" y="240" width="180" height="60" as="geometry" />
        </mxCell>
        <mxCell id="ngFuJoTjV09uziLHRVnx-37" style="edgeStyle=elbowEdgeStyle;rounded=0;orthogonalLoop=1;jettySize=auto;elbow=vertical;html=1;exitX=0;exitY=0.5;exitDx=0;exitDy=0;fontSize=16;" edge="1" parent="1" source="ngFuJoTjV09uziLHRVnx-2" target="ngFuJoTjV09uziLHRVnx-1">
          <mxGeometry relative="1" as="geometry" />
        </mxCell>
        <mxCell id="ngFuJoTjV09uziLHRVnx-2" value="xiami-content-api" style="rounded=1;whiteSpace=wrap;html=1;gradientColor=#7ea6e0;fillColor=#dae8fc;strokeColor=#6c8ebf;fontSize=16;" vertex="1" parent="1">
          <mxGeometry x="300" y="240" width="180" height="60" as="geometry" />
        </mxCell>
        <mxCell id="ngFuJoTjV09uziLHRVnx-3" value="xiami-content-cache" style="rounded=1;whiteSpace=wrap;html=1;gradientColor=#7ea6e0;fillColor=#dae8fc;strokeColor=#6c8ebf;fontSize=16;" vertex="1" parent="1">
          <mxGeometry x="1270" y="240" width="180" height="60" as="geometry" />
        </mxCell>
        <mxCell id="ngFuJoTjV09uziLHRVnx-13" style="edgeStyle=orthogonalEdgeStyle;rounded=0;orthogonalLoop=1;jettySize=auto;html=1;exitX=0.5;exitY=0;exitDx=0;exitDy=0;entryX=0.5;entryY=1;entryDx=0;entryDy=0;fontSize=16;" edge="1" parent="1" source="ngFuJoTjV09uziLHRVnx-4" target="ngFuJoTjV09uziLHRVnx-2">
          <mxGeometry relative="1" as="geometry" />
        </mxCell>
        <mxCell id="ngFuJoTjV09uziLHRVnx-4" value="xiami-content-gql" style="rounded=1;whiteSpace=wrap;html=1;gradientColor=#7ea6e0;fillColor=#dae8fc;strokeColor=#6c8ebf;fontSize=16;" vertex="1" parent="1">
          <mxGeometry x="80" y="480" width="180" height="60" as="geometry" />
        </mxCell>
        <mxCell id="ngFuJoTjV09uziLHRVnx-11" style="edgeStyle=orthogonalEdgeStyle;rounded=0;orthogonalLoop=1;jettySize=auto;html=1;exitX=0.5;exitY=0;exitDx=0;exitDy=0;fontSize=16;" edge="1" parent="1" source="ngFuJoTjV09uziLHRVnx-5" target="ngFuJoTjV09uziLHRVnx-2">
          <mxGeometry relative="1" as="geometry" />
        </mxCell>
        <mxCell id="ngFuJoTjV09uziLHRVnx-5" value="xiami-content-client" style="rounded=1;whiteSpace=wrap;html=1;gradientColor=#7ea6e0;fillColor=#dae8fc;strokeColor=#6c8ebf;fontSize=16;" vertex="1" parent="1">
          <mxGeometry x="300" y="480" width="180" height="60" as="geometry" />
        </mxCell>
        <mxCell id="ngFuJoTjV09uziLHRVnx-12" style="edgeStyle=orthogonalEdgeStyle;rounded=0;orthogonalLoop=1;jettySize=auto;html=1;exitX=0.5;exitY=0;exitDx=0;exitDy=0;fontSize=16;entryX=0.5;entryY=1;entryDx=0;entryDy=0;" edge="1" parent="1" source="ngFuJoTjV09uziLHRVnx-6" target="ngFuJoTjV09uziLHRVnx-2">
          <mxGeometry relative="1" as="geometry">
            <mxPoint x="350" y="300" as="targetPoint" />
          </mxGeometry>
        </mxCell>
        <mxCell id="ngFuJoTjV09uziLHRVnx-6" value="xiami-content-orm" style="rounded=1;whiteSpace=wrap;html=1;gradientColor=#7ea6e0;fillColor=#dae8fc;strokeColor=#6c8ebf;fontSize=16;" vertex="1" parent="1">
          <mxGeometry x="530" y="480" width="180" height="60" as="geometry" />
        </mxCell>
        <mxCell id="ngFuJoTjV09uziLHRVnx-19" value="xiami-relation-api" style="rounded=1;whiteSpace=wrap;html=1;gradientColor=#7ea6e0;fillColor=#dae8fc;strokeColor=#6c8ebf;fontSize=16;" vertex="1" parent="1">
          <mxGeometry x="1020" y="240" width="180" height="60" as="geometry" />
        </mxCell>
        <mxCell id="ngFuJoTjV09uziLHRVnx-42" style="edgeStyle=elbowEdgeStyle;rounded=0;orthogonalLoop=1;jettySize=auto;elbow=vertical;html=1;exitX=0.5;exitY=0;exitDx=0;exitDy=0;entryX=0;entryY=0.5;entryDx=0;entryDy=0;fontSize=16;" edge="1" parent="1" source="ngFuJoTjV09uziLHRVnx-20" target="ngFuJoTjV09uziLHRVnx-19">
          <mxGeometry relative="1" as="geometry">
            <Array as="points">
              <mxPoint x="930" y="270" />
            </Array>
          </mxGeometry>
        </mxCell>
        <mxCell id="ngFuJoTjV09uziLHRVnx-43" style="edgeStyle=elbowEdgeStyle;rounded=0;orthogonalLoop=1;jettySize=auto;elbow=vertical;html=1;exitX=0.5;exitY=0;exitDx=0;exitDy=0;entryX=1;entryY=0.5;entryDx=0;entryDy=0;fontSize=16;" edge="1" parent="1" source="ngFuJoTjV09uziLHRVnx-20" target="ngFuJoTjV09uziLHRVnx-2">
          <mxGeometry relative="1" as="geometry">
            <Array as="points">
              <mxPoint x="680" y="270" />
            </Array>
          </mxGeometry>
        </mxCell>
        <mxCell id="ngFuJoTjV09uziLHRVnx-20" value="xiami-content-middlware-api" style="rounded=1;whiteSpace=wrap;html=1;gradientColor=#7ea6e0;fillColor=#dae8fc;strokeColor=#6c8ebf;fontSize=16;" vertex="1" parent="1">
          <mxGeometry x="770" y="480" width="180" height="60" as="geometry" />
        </mxCell>
        <mxCell id="ngFuJoTjV09uziLHRVnx-31" style="edgeStyle=elbowEdgeStyle;rounded=0;orthogonalLoop=1;jettySize=auto;elbow=vertical;html=1;exitX=0.5;exitY=0;exitDx=0;exitDy=0;entryX=0.5;entryY=1;entryDx=0;entryDy=0;fontSize=16;" edge="1" parent="1" source="ngFuJoTjV09uziLHRVnx-25" target="ngFuJoTjV09uziLHRVnx-3">
          <mxGeometry relative="1" as="geometry" />
        </mxCell>
        <mxCell id="ngFuJoTjV09uziLHRVnx-25" value="xiami-content-middleware-cache" style="rounded=1;whiteSpace=wrap;html=1;gradientColor=#7ea6e0;fillColor=#dae8fc;strokeColor=#6c8ebf;fontSize=16;" vertex="1" parent="1">
          <mxGeometry x="1270" y="450" width="180" height="60" as="geometry" />
        </mxCell>
        <mxCell id="ngFuJoTjV09uziLHRVnx-48" style="edgeStyle=elbowEdgeStyle;rounded=0;orthogonalLoop=1;jettySize=auto;elbow=vertical;html=1;exitX=1;exitY=0.5;exitDx=0;exitDy=0;entryX=0.5;entryY=1;entryDx=0;entryDy=0;fontSize=21;" edge="1" parent="1" source="ngFuJoTjV09uziLHRVnx-26" target="ngFuJoTjV09uziLHRVnx-20">
          <mxGeometry relative="1" as="geometry">
            <Array as="points">
              <mxPoint x="860" y="745" />
            </Array>
          </mxGeometry>
        </mxCell>
        <mxCell id="ngFuJoTjV09uziLHRVnx-49" style="edgeStyle=elbowEdgeStyle;rounded=0;orthogonalLoop=1;jettySize=auto;elbow=vertical;html=1;exitX=0.5;exitY=0;exitDx=0;exitDy=0;entryX=0.5;entryY=1;entryDx=0;entryDy=0;fontSize=21;" edge="1" parent="1" source="ngFuJoTjV09uziLHRVnx-26" target="ngFuJoTjV09uziLHRVnx-6">
          <mxGeometry relative="1" as="geometry" />
        </mxCell>
        <mxCell id="ngFuJoTjV09uziLHRVnx-50" style="edgeStyle=elbowEdgeStyle;rounded=0;orthogonalLoop=1;jettySize=auto;elbow=vertical;html=1;fontSize=21;" edge="1" parent="1" source="ngFuJoTjV09uziLHRVnx-26" target="ngFuJoTjV09uziLHRVnx-5">
          <mxGeometry relative="1" as="geometry" />
        </mxCell>
        <mxCell id="ngFuJoTjV09uziLHRVnx-51" style="edgeStyle=elbowEdgeStyle;rounded=0;orthogonalLoop=1;jettySize=auto;elbow=vertical;html=1;exitX=0;exitY=0.5;exitDx=0;exitDy=0;entryX=0.5;entryY=1;entryDx=0;entryDy=0;fontSize=21;" edge="1" parent="1">
          <mxGeometry relative="1" as="geometry">
            <mxPoint x="390" y="737" as="sourcePoint" />
            <mxPoint x="-30" y="297" as="targetPoint" />
            <Array as="points">
              <mxPoint x="150" y="742" />
            </Array>
          </mxGeometry>
        </mxCell>
        <mxCell id="ngFuJoTjV09uziLHRVnx-54" style="edgeStyle=elbowEdgeStyle;rounded=0;orthogonalLoop=1;jettySize=auto;elbow=vertical;html=1;exitX=1;exitY=0.5;exitDx=0;exitDy=0;entryX=0.5;entryY=1;entryDx=0;entryDy=0;fontSize=16;" edge="1" parent="1">
          <mxGeometry relative="1" as="geometry">
            <mxPoint x="610" y="735" as="sourcePoint" />
            <mxPoint x="1360" y="509" as="targetPoint" />
            <Array as="points">
              <mxPoint x="960" y="745" />
            </Array>
          </mxGeometry>
        </mxCell>
        <mxCell id="ngFuJoTjV09uziLHRVnx-55" style="edgeStyle=elbowEdgeStyle;rounded=0;orthogonalLoop=1;jettySize=auto;elbow=vertical;html=1;exitX=1;exitY=0.5;exitDx=0;exitDy=0;entryX=0.5;entryY=1;entryDx=0;entryDy=0;fontSize=16;" edge="1" parent="1" target="ngFuJoTjV09uziLHRVnx-19">
          <mxGeometry relative="1" as="geometry">
            <mxPoint x="610" y="745" as="sourcePoint" />
            <mxPoint x="1110" y="305" as="targetPoint" />
            <Array as="points">
              <mxPoint x="1100" y="745" />
            </Array>
          </mxGeometry>
        </mxCell>
        <mxCell id="ngFuJoTjV09uziLHRVnx-26" value="xiami-content-middlware-client" style="rounded=1;whiteSpace=wrap;html=1;gradientColor=#ea6b66;fillColor=#f8cecc;strokeColor=#b85450;fontSize=16;" vertex="1" parent="1">
          <mxGeometry x="390" y="710" width="220" height="60" as="geometry" />
        </mxCell>
      </root>
    </mxGraphModel>
  </diagram>
</mxfile>
